<svg viewBox="0 0 72 72" xmlns="http://www.w3.org/2000/svg"><path d="m35.71 64.65c4.779 0 7.509-2.244 8.156-5.151h-16.31c.647 2.907 3.376 5.151 8.155 5.151z" fill="#d0cfce"/><path d="m45.5 10.41c-.0004 0-12.23-3.457-18.2 1.269-5.969 4.726-7.651 15.6-7.651 15.6.5848 2.213 4.226 8.493 4.226 8.493.54.9111 2.253 7.981 3.249 11.86h17.17c.8662-2.845 4.35-13.65 4.805-14.71.584-1.363 1.58-4.016 2.083-5.017 1.21-2.409.5378-4.455.5378-7.027 0-5.487-1.902-7.726-6.221-10.47z" fill="#fcea2b"/><path d="m35.71 7.202c-8.532 0-16.5 6.752-16.5 15.28 0 1.079-.2641 4.491 1.217 4.491 0 0 2.393-7.825 8.362-12.55s15.52-3.725 15.52-3.725c-.6645-2.045-5.55-3.499-8.596-3.499z" fill="#fff"/><g stroke="#000" stroke-linecap="round" stroke-linejoin="round" stroke-miterlimit="10"><path d="m52.55 23.75c0 3.985-1.785 5.908-3.754 10.5-.5028 1.172-4.211 13.38-4.211 13.38h-17.17s-2.981-11.67-3.546-12.62c-2.37-3.998-4.419-6.91-4.419-11.26 0-9.141 7.41-16.55 16.55-16.55 9.141 0 16.55 7.41 16.55 16.55z" fill="none" stroke-width="2"/><path d="m36 47.22v-11.94" stroke-width="2"/><path d="m41.97 35.28h-11.94" stroke-width="2"/><path d="m44.16 58.79c0 3.24-3.651 5.867-8.155 5.867s-8.155-2.627-8.155-5.867z" fill="none" stroke-width="1.696"/><path d="m27.99 54.98 16.02-3.47" stroke-width="1.965"/><path d="m38.2 56.07 5.78-1.18" stroke-width="2"/><path d="m28.02 51.6 5.78-1.18" stroke-width="2"/></g></svg>